<svg xmlns="http://www.w3.org/2000/svg" xmlns:xlink="http://www.w3.org/1999/xlink"><defs><clipPath id="a"><path fill="#fff" d="M0 0h108v35H0z"/></clipPath><clipPath id="a"><path fill="#fff" d="M0 0h63v20H0z"/></clipPath><clipPath id="a"><path fill="#fff" d="M0 0h113v36H0z"/></clipPath></defs><symbol id="check-circle"><path d="M17.719 9.25C17.719 4.469 13.78.531 9 .531 4.184.531.281 4.47.281 9.25A8.717 8.717 0 0 0 9 17.969c4.781 0 8.719-3.903 8.719-8.719ZM7.98 13.89a.596.596 0 0 1-.808 0l-3.656-3.656a.596.596 0 0 1 0-.808l.808-.774a.497.497 0 0 1 .774 0l2.496 2.461 5.273-5.273a.497.497 0 0 1 .774 0l.808.773a.596.596 0 0 1 0 .809L7.98 13.89Z" fill="currentColor"/></symbol><symbol id="icon-arrow"><path d="m11 21-8.729-8.728a.927.927 0 0 1 0-1.311L11 2.232" stroke="currentColor" stroke-width="3" stroke-linecap="round"/></symbol><symbol id="icon-burger"><path d="M4.953 7.5a1.5 1.5 0 0 0 0 3v-3Zm23.72 3a1.5 1.5 0 1 0 0-3v3Zm-23.72 0h23.72v-3H4.953v3ZM4.953 15.5a1.5 1.5 0 0 0 0 3v-3Zm23.72 3a1.5 1.5 0 1 0 0-3v3Zm-23.72 0h23.72v-3H4.953v3ZM4.953 23.5a1.5 1.5 0 0 0 0 3v-3Zm23.72 3a1.5 1.5 0 1 0 0-3v3Zm-23.72 0h23.72v-3H4.953v3Z" fill="#E97522"/></symbol><symbol id="icon-call"><path d="M21.677 16.662c-1.332 0-2.621-.217-3.824-.607a1.059 1.059 0 0 0-1.094.26l-1.7 2.134c-3.066-1.462-5.937-4.225-7.465-7.399l2.113-1.798c.292-.304.379-.726.26-1.105a12.082 12.082 0 0 1-.607-3.825c0-.585-.487-1.072-1.072-1.072H4.538c-.585 0-1.289.26-1.289 1.072 0 10.065 8.374 18.428 18.427 18.428.77 0 1.073-.683 1.073-1.278v-3.738c0-.585-.488-1.072-1.073-1.072Z" fill="#4A4A4A"/></symbol><symbol id="icon-facebook"><path fill-rule="evenodd" clip-rule="evenodd" d="M14.784 8.169V11.8h7.075l-1.13 5.6h-5.945V31H6.812V17.4H.329v-5.6h6.483V7.535C6.812 2.678 10.618 0 16.454 0c2.793 0 5.71.382 5.71.382v4.762h-3.223c-3.169 0-4.157 1.492-4.157 3.025Z" fill="currentColor"/></symbol><symbol id="icon-instagram"><path fill-rule="evenodd" clip-rule="evenodd" d="M30.503 5.345a7.652 7.652 0 0 0-1.81-2.745A7.747 7.747 0 0 0 25.92.81c-.992-.383-2.13-.637-3.802-.72C20.445.019 19.913 0 15.66 0c-4.252 0-4.785.018-6.457.09-1.662.083-2.801.337-3.802.728A7.746 7.746 0 0 0 2.627 2.61a7.651 7.651 0 0 0-1.81 2.746C.432 6.336.175 7.464.092 9.109.018 10.764 0 11.291 0 15.5c0 4.21.018 4.736.092 6.39.083 1.655.34 2.783.735 3.764A7.651 7.651 0 0 0 2.636 28.4a7.747 7.747 0 0 0 2.774 1.79c.992.383 2.13.646 3.802.72 1.672.072 2.205.09 6.457.09 4.253 0 4.785-.018 6.457-.09 1.662-.074 2.801-.337 3.803-.72a7.747 7.747 0 0 0 2.773-1.79 7.653 7.653 0 0 0 1.81-2.745c.386-.982.652-2.11.725-3.764.074-1.655.092-2.182.092-6.391 0-4.21-.018-4.736-.092-6.39-.082-1.646-.349-2.774-.734-3.765ZM15.66 23.464c-4.445 0-8.046-3.564-8.046-7.964s3.6-7.964 8.046-7.964c4.445 0 8.046 3.564 8.046 7.964s-3.6 7.964-8.046 7.964ZM24.027 9.09a1.876 1.876 0 0 1-1.883-1.864c0-1.027.846-1.863 1.883-1.863 1.038 0 1.883.836 1.883 1.863a1.882 1.882 0 0 1-1.883 1.864Zm-3.14 6.409c0 2.855-2.334 5.164-5.218 5.164s-5.217-2.31-5.217-5.164c0-2.854 2.333-5.164 5.217-5.164 2.875 0 5.217 2.31 5.217 5.164Z" fill="currentColor"/></symbol><symbol id="icon-telegram"><path fill-rule="evenodd" clip-rule="evenodd" d="M33.706 2.539c-.082 1.1-.766 4.946-1.44 9.097l-2.124 12.322s-.166 1.808-1.616 2.114c-1.44.316-3.824-1.1-4.248-1.416-.342-.239-6.373-3.769-8.58-5.49-.59-.47-1.274-1.417.083-2.507 3.057-2.593 6.714-5.807 8.921-7.845 1.016-.937 2.042-3.138-2.207-.469l-11.977 7.453s-1.358.784-3.907.076C4.062 15.166 1.09 14.23 1.09 14.23s-2.041-1.177 1.44-2.43l19.8-7.529c1.959-.784 8.58-3.29 8.58-3.29s3.057-1.1 2.797 1.559Z" fill="currentColor"/></symbol><symbol id="icon-twitter"><path fill-rule="evenodd" clip-rule="evenodd" d="M27.807 5.185a12.06 12.06 0 0 0 3.687-1.084 13.757 13.757 0 0 1-3.209 3.563c.01.292.02.593.02.894 0 9.084-6.466 19.563-18.288 19.563-3.631 0-7.009-1.134-9.852-3.091.507.06 1.013.09 1.53.09 3.011 0 5.78-1.104 7.984-2.941-2.815-.06-5.188-2.048-6.005-4.778.394.08.798.12 1.21.12.592 0 1.155-.08 1.699-.24-2.937-.633-5.16-3.413-5.16-6.746v-.09a6.162 6.162 0 0 0 2.908.863c-1.726-1.235-2.862-3.342-2.862-5.721 0-1.255.32-2.44.873-3.453C5.513 6.299 10.252 9.03 15.59 9.32a7.133 7.133 0 0 1-.168-1.566c0-3.795 2.88-6.876 6.427-6.876 1.848 0 3.518.833 4.691 2.168a12.512 12.512 0 0 0 4.082-1.666c-.47 1.606-1.483 2.95-2.815 3.804Z" fill="currentColor"/></symbol><symbol id="logo-desktop"><g clip-path="url(#a)"><path d="M30.106 24.85c0 2.807-.918 5.158-2.756 7.053-1.835 1.895-4.119 2.843-6.85 2.844h-8.048v-13.43h5.195v8.537h2.854c1.375 0 2.496-.458 3.361-1.373.868-.912 1.3-2.122 1.3-3.631s-.434-2.72-1.3-3.635c-.865-.914-1.985-1.37-3.361-1.37H9.598a9.502 9.502 0 0 1-4.4-1.008 9.386 9.386 0 0 1-2.449-1.834A9.657 9.657 0 0 1 0 10.339v-.766C.076 6.928.993 4.7 2.749 2.892 4.584.997 6.867.049 9.599.049h8.048V13.48h-5.195v-8.54H9.598c-1.375 0-2.496.458-3.362 1.372-.867.914-1.3 2.125-1.3 3.633 0 1.51.433 2.722 1.3 3.634.866.914 1.986 1.372 3.362 1.373h10.903c2.731 0 5.014.947 6.85 2.84 1.837 1.895 2.755 4.247 2.755 7.057Z" fill="#4A4A4A"/><path d="M48.782 0h-4.644l-4.92 14.926h4.132l.64-2.154h4.962l.64 2.154h4.11L48.782 0Zm-3.813 9.489 1.491-5.075 1.512 5.075H44.97ZM60.86 0h-6.07v9.91h3.918V3.688h2.152a3.335 3.335 0 0 1 2.535 1.034c.653.69.98 1.603.98 2.74 0 1.137-.327 2.05-.98 2.74a3.338 3.338 0 0 1-2.535 1.034h-6.07v3.69h6.07c2.059 0 3.78-.715 5.165-2.144 1.385-1.428 2.077-3.202 2.077-5.32 0-2.118-.692-3.891-2.077-5.32C64.641.714 62.92 0 60.86 0ZM75.94 0h-6.07v3.689h6.07a3.334 3.334 0 0 1 2.536 1.034c.653.69.98 1.603.98 2.74 0 1.137-.327 2.05-.98 2.74a3.337 3.337 0 0 1-2.535 1.034H73.79v-6.22h-3.92v9.91h6.07c2.06 0 3.781-.715 5.166-2.144 1.385-1.428 2.077-3.202 2.077-5.32 0-2.118-.692-3.891-2.077-5.32C79.722.714 78 0 75.941 0Z" fill="#E97522"/><path d="M45.011 19.754a5.264 5.264 0 0 1 3.792 1.471c1.023.981 1.534 2.232 1.534 3.753s-.511 2.772-1.534 3.753a5.268 5.268 0 0 1-3.791 1.471H43.03v4.478h-3.812V19.754h5.793Zm0 6.823a1.442 1.442 0 0 0 1.076-.448 1.582 1.582 0 0 0 .437-1.15 1.547 1.547 0 0 0-.437-1.142 1.462 1.462 0 0 0-1.076-.437h-1.98v3.177h1.98ZM59.837 19.754h3.792V34.68h-3.792v-5.736h-4.196v5.736h-3.813V19.754h3.813v5.522h4.196v-5.522ZM78.785 32.75a7.97 7.97 0 0 1-11.098 0 7.484 7.484 0 0 1-2.268-5.534 7.491 7.491 0 0 1 2.268-5.533 7.97 7.97 0 0 1 11.098 0 7.487 7.487 0 0 1 2.269 5.534 7.49 7.49 0 0 1-2.269 5.533Zm-8.424-2.623a4.248 4.248 0 0 0 7.14-1.595 4.26 4.26 0 0 0-1.993-5.043 4.246 4.246 0 0 0-5.322 1.015 4.257 4.257 0 0 0-.976 2.712 3.928 3.928 0 0 0 1.15 2.911ZM92.3 19.754v3.689h-3.685V34.68h-3.813V23.443h-3.685v-3.69H92.3ZM105.732 32.75a7.972 7.972 0 0 1-11.098 0 7.484 7.484 0 0 1-2.269-5.534 7.491 7.491 0 0 1 2.269-5.533 7.97 7.97 0 0 1 11.097 0A7.48 7.48 0 0 1 108 27.217a7.5 7.5 0 0 1-2.268 5.533Zm-8.425-2.623a4.248 4.248 0 0 0 7.141-1.595 4.257 4.257 0 0 0-1.994-5.043 4.244 4.244 0 0 0-5.322 1.015 4.257 4.257 0 0 0-.976 2.712 3.926 3.926 0 0 0 1.15 2.911Z" fill="#B1B1B1"/></g></symbol><symbol id="logo-mobile"><g clip-path="url(#a)"><path d="M17.562 14.2c0 1.603-.536 2.947-1.608 4.03-1.07 1.083-2.402 1.624-3.995 1.625H7.264V12.18h3.03v4.879h1.665c.802 0 1.456-.262 1.96-.785.507-.52.76-1.213.758-2.075 0-.862-.252-1.554-.757-2.077-.505-.522-1.159-.783-1.961-.783h-6.36a5.638 5.638 0 0 1-2.72-.655 5.465 5.465 0 0 1-1.276-.969A5.461 5.461 0 0 1 0 5.908V5.47c.045-1.512.579-2.784 1.603-3.818C2.674.569 4.006.028 5.6.027h4.695v7.676h-3.03v-4.88H5.599c-.802 0-1.456.261-1.961.784-.506.522-.759 1.214-.759 2.076 0 .863.253 1.555.759 2.077.505.522 1.158.783 1.96.784h6.36c1.594 0 2.926.541 3.996 1.623 1.072 1.082 1.608 2.427 1.608 4.033Z" fill="#4A4A4A"/><path d="M28.456 0h-2.709l-2.87 8.53h2.41l.373-1.231h2.895l.373 1.23h2.398L28.456 0Zm-2.224 5.422.87-2.9.882 2.9h-1.752ZM35.502 0h-3.541v5.662h2.286V2.108h1.255a1.981 1.981 0 0 1 1.479.59c.38.395.571.917.571 1.567 0 .65-.19 1.171-.571 1.565a1.98 1.98 0 0 1-1.479.591h-3.541V8.53h3.541c1.201 0 2.206-.408 3.013-1.224.808-.817 1.212-1.83 1.212-3.04s-.404-2.224-1.212-3.04C37.708.408 36.703 0 35.502 0ZM44.3 0h-3.542v2.108h3.541a1.981 1.981 0 0 1 1.479.59c.38.395.571.917.571 1.567 0 .65-.19 1.171-.571 1.565a1.98 1.98 0 0 1-1.479.591h-1.255V2.867h-2.286v5.662h3.541c1.201 0 2.205-.408 3.013-1.224.808-.817 1.212-1.83 1.212-3.04s-.404-2.224-1.212-3.04C46.505.408 45.5 0 44.3 0Z" fill="#E97522"/><path d="M26.257 11.288c.407-.01.812.059 1.192.203.38.144.726.361 1.02.638.596.56.894 1.275.894 2.145 0 .869-.298 1.584-.895 2.144a3.08 3.08 0 0 1-1.02.638c-.38.144-.784.213-1.191.203H25.1v2.558h-2.224v-8.529h3.38Zm0 3.9a.858.858 0 0 0 .823-.56.887.887 0 0 0 .059-.354.867.867 0 0 0-.882-.902H25.1v1.815h1.156ZM34.904 11.287h2.212v8.53h-2.212v-3.278h-2.448v3.277h-2.224v-8.529h2.224v3.156h2.448v-3.156ZM45.958 18.715A4.7 4.7 0 0 1 42.721 20a4.7 4.7 0 0 1-3.236-1.285c-.43-.41-.77-.902-.998-1.446a4.203 4.203 0 0 1-.326-1.716 4.203 4.203 0 0 1 .326-1.716 4.274 4.274 0 0 1 .997-1.446 4.7 4.7 0 0 1 3.237-1.286 4.7 4.7 0 0 1 3.237 1.286c.43.41.77.902.998 1.446.228.544.338 1.128.326 1.716a4.204 4.204 0 0 1-.326 1.716 4.273 4.273 0 0 1-.998 1.446Zm-4.914-1.499a2.519 2.519 0 0 0 3.136.39 2.438 2.438 0 0 0 1.03-1.301c.178-.538.16-1.12-.053-1.646a2.447 2.447 0 0 0-1.11-1.236 2.522 2.522 0 0 0-1.66-.258 2.49 2.49 0 0 0-1.445.838 2.402 2.402 0 0 0-.57 1.55c-.01.307.044.614.16.9.115.286.29.546.512.763ZM53.842 11.287v2.108h-2.15v6.422h-2.224v-6.422h-2.15v-2.108h6.524ZM61.677 18.715A4.7 4.7 0 0 1 58.44 20a4.7 4.7 0 0 1-3.237-1.285c-.43-.41-.77-.902-.998-1.446a4.203 4.203 0 0 1-.325-1.716 4.205 4.205 0 0 1 .325-1.716 4.275 4.275 0 0 1 .998-1.446 4.7 4.7 0 0 1 3.237-1.286 4.7 4.7 0 0 1 3.237 1.286c.43.41.77.902.998 1.446.227.544.338 1.128.325 1.716a4.205 4.205 0 0 1-.325 1.716 4.272 4.272 0 0 1-.998 1.446Zm-4.914-1.499a2.519 2.519 0 0 0 3.136.39 2.438 2.438 0 0 0 1.03-1.301c.178-.538.16-1.12-.053-1.646a2.446 2.446 0 0 0-1.11-1.236 2.522 2.522 0 0 0-1.66-.258 2.49 2.49 0 0 0-1.445.838 2.402 2.402 0 0 0-.57 1.55c-.01.307.044.614.16.9.115.286.29.546.512.763Z" fill="#B1B1B1"/></g></symbol><symbol id="logo-tablet"><g clip-path="url(#a)"><path d="M31.5 25.559c0 2.887-.961 5.305-2.884 7.255-1.92 1.949-4.309 2.923-7.166 2.924h-8.422V21.924h5.436v8.781h2.986c1.439 0 2.611-.47 3.517-1.412.908-.938 1.36-2.183 1.36-3.734 0-1.552-.454-2.798-1.36-3.74-.905-.94-2.078-1.41-3.517-1.41H10.042a10.082 10.082 0 0 1-4.604-1.036 9.8 9.8 0 0 1-2.562-1.886A9.847 9.847 0 0 1 0 10.633v-.788c.08-2.72 1.039-5.01 2.876-6.872C4.796 1.024 7.186.05 10.042.05h8.422v13.816h-5.436V5.082h-2.986c-1.438 0-2.61.47-3.517 1.41s-1.36 2.185-1.36 3.736c0 1.554.453 2.8 1.36 3.739.905.94 2.078 1.41 3.517 1.412H21.45c2.858 0 5.247.974 7.166 2.92 1.923 1.95 2.884 4.37 2.884 7.26Z" fill="#4A4A4A"/><path d="M51.04 0h-4.858l-5.149 15.353h4.324l.669-2.216h5.192l.669 2.216h4.301L51.04 0Zm-3.99 9.76 1.56-5.22 1.583 5.22h-3.142ZM63.678 0h-6.352v10.192h4.101V3.794h2.251c.493-.017.985.069 1.442.252.457.184.87.46 1.21.812.683.71 1.025 1.649 1.025 2.818 0 1.17-.341 2.11-1.025 2.819-.34.351-.753.628-1.21.811-.457.184-.949.27-1.442.252h-6.352v3.795h6.352c2.154 0 3.956-.735 5.404-2.205 1.45-1.47 2.174-3.293 2.174-5.472 0-2.178-.725-4.002-2.174-5.472C67.635.734 65.832 0 63.678 0ZM79.455 0h-6.352v3.794h6.352c.494-.017.985.069 1.442.252.457.184.87.46 1.21.812.684.71 1.025 1.649 1.026 2.818 0 1.17-.342 2.11-1.025 2.819-.341.351-.753.628-1.21.811-.458.184-.95.27-1.443.252h-2.25V5.16h-4.102v10.193h6.352c2.154 0 3.956-.735 5.405-2.205 1.449-1.47 2.173-3.293 2.173-5.472 0-2.178-.725-4.002-2.173-5.472C83.41.734 81.61 0 79.455 0Z" fill="#E97522"/><path d="M47.095 20.318a5.591 5.591 0 0 1 2.138.365c.681.26 1.303.65 1.83 1.149 1.07 1.009 1.604 2.295 1.604 3.86s-.535 2.851-1.605 3.86a5.523 5.523 0 0 1-1.829 1.148 5.59 5.59 0 0 1-2.138.365h-2.073v4.606h-3.989V20.318h6.062Zm0 7.019a1.532 1.532 0 0 0 1.126-.461 1.623 1.623 0 0 0 .457-1.184 1.564 1.564 0 0 0-.973-1.513 1.554 1.554 0 0 0-.61-.11h-2.073v3.268h2.073ZM62.609 20.318h3.967v15.353h-3.967v-5.9h-4.391v5.9h-3.99V20.318h3.99v5.68h4.39v-5.68ZM82.432 33.687a8.415 8.415 0 0 1-5.805 2.314c-2.167 0-4.25-.83-5.806-2.314a7.694 7.694 0 0 1-1.79-2.602 7.592 7.592 0 0 1-.584-3.09 7.592 7.592 0 0 1 .584-3.089 7.693 7.693 0 0 1 1.79-2.602 8.416 8.416 0 0 1 5.806-2.314c2.167 0 4.249.83 5.805 2.314a7.695 7.695 0 0 1 1.79 2.602c.408.98.607 2.031.584 3.09a7.59 7.59 0 0 1-.584 3.089 7.693 7.693 0 0 1-1.79 2.602Zm-8.814-2.698a4.504 4.504 0 0 0 5.624.702 4.387 4.387 0 0 0 1.847-2.342 4.31 4.31 0 0 0-.093-2.963 4.399 4.399 0 0 0-1.992-2.225 4.51 4.51 0 0 0-2.976-.464 4.461 4.461 0 0 0-2.593 1.509 4.334 4.334 0 0 0-1.02 2.79 3.98 3.98 0 0 0 .284 1.62c.208.515.52.982.919 1.373ZM96.574 20.318v3.795h-3.856V35.67h-3.99V24.113h-3.855v-3.795h11.701ZM110.626 33.687a8.417 8.417 0 0 1-5.806 2.314 8.416 8.416 0 0 1-5.806-2.314 7.692 7.692 0 0 1-1.79-2.602 7.59 7.59 0 0 1-.584-3.09 7.592 7.592 0 0 1 .585-3.089 7.693 7.693 0 0 1 1.79-2.602 8.417 8.417 0 0 1 5.805-2.314c2.167 0 4.249.83 5.806 2.314a7.687 7.687 0 0 1 1.789 2.602c.409.98.608 2.031.584 3.09a7.569 7.569 0 0 1-.584 3.089 7.686 7.686 0 0 1-1.789 2.602Zm-8.815-2.698a4.504 4.504 0 0 0 5.624.702 4.387 4.387 0 0 0 1.848-2.342 4.31 4.31 0 0 0-.094-2.963 4.4 4.4 0 0 0-1.992-2.225 4.51 4.51 0 0 0-2.976-.464 4.463 4.463 0 0 0-2.593 1.509 4.332 4.332 0 0 0-1.021 2.79 3.995 3.995 0 0 0 1.204 2.993Z" fill="#B1B1B1"/></g></symbol></svg>