<svg width="25" height="24" viewBox="0 0 25 24" fill="none" xmlns="http://www.w3.org/2000/svg">
<path d="M24.2599 3.71906L10.5799 17.5191L5.41992 12.3591L7.21992 10.6791L10.5799 14.0391L22.5799 2.03906L24.2599 3.71906Z" fill="#E97522"/>
<path d="M23.54 7.92L21.86 9.6C22.1 10.32 22.22 11.16 22.22 12C22.22 17.52 17.78 21.84 12.38 21.84C6.86 21.84 2.54 17.4 2.54 12C2.54 6.48 6.98 2.16 12.38 2.16C14.3 2.16 16.22 2.76 17.78 3.72L19.34 2.16C17.42 0.840001 15.02 0 12.5 0C5.9 0 0.5 5.4 0.5 12C0.5 18.6 5.9 24 12.5 24C19.1 24 24.5 18.6 24.5 12C24.26 10.56 24.02 9.12 23.54 7.92Z" fill="#E97522"/>
</svg>
