<svg width="33" height="34" viewBox="0 0 33 34" fill="none" xmlns="http://www.w3.org/2000/svg">
<path d="M4.95312 7.5C4.1247 7.5 3.45312 8.17157 3.45312 9C3.45312 9.82843 4.1247 10.5 4.95312 10.5V7.5ZM28.6732 10.5C29.5017 10.5 30.1732 9.82843 30.1732 9C30.1732 8.17157 29.5017 7.5 28.6732 7.5V10.5ZM4.95312 10.5H28.6732V7.5H4.95312V10.5Z" fill="#E97522"/>
<path d="M4.95312 15.5C4.1247 15.5 3.45312 16.1716 3.45312 17C3.45312 17.8284 4.1247 18.5 4.95312 18.5V15.5ZM28.6732 18.5C29.5017 18.5 30.1732 17.8284 30.1732 17C30.1732 16.1716 29.5017 15.5 28.6732 15.5V18.5ZM4.95312 18.5H28.6732V15.5H4.95312V18.5Z" fill="#E97522"/>
<path d="M4.95312 23.5C4.1247 23.5 3.45312 24.1716 3.45312 25C3.45312 25.8284 4.1247 26.5 4.95312 26.5V23.5ZM28.6732 26.5C29.5017 26.5 30.1732 25.8284 30.1732 25C30.1732 24.1716 29.5017 23.5 28.6732 23.5V26.5ZM4.95312 26.5H28.6732V23.5H4.95312V26.5Z" fill="#E97522"/>
</svg>
